<svg width="144" height="36" viewBox="0 0 144 36" fill="none" xmlns="http://www.w3.org/2000/svg">
<g clip-path="url(#clip0_2027_2133)">
<path d="M52.0256 21.9027H42.7874L40.7973 26.3795H38.9747L46.5529 9.63104H48.2811L55.8592 26.3795H54.0105L52.0256 21.9027ZM51.3815 20.4633L47.4013 11.4673L43.4211 20.4633H51.3815Z" fill="#113154"/>
<path d="M58.106 19.2197V9.62573H59.8604V19.1456C59.8604 23.1198 61.7091 24.9349 64.9299 24.9349C68.1717 24.9349 70.0204 23.1145 70.0204 19.1456V9.62573H71.7277V19.2197C71.7277 24.03 69.172 26.5171 64.9299 26.5171C60.6879 26.5171 58.106 24.03 58.106 19.2197Z" fill="#113154"/>
<path d="M77.0015 9.62573H83.7522C89.0574 9.62573 92.6343 13.0707 92.6343 17.9973C92.6343 22.924 89.0574 26.3689 83.7522 26.3689H77.0015V9.62573ZM83.6527 24.8449C88.0571 24.8449 90.9009 22.0191 90.9009 18.0026C90.9009 13.9809 88.0571 11.1603 83.6527 11.1603H78.7507V24.8449H83.6527Z" fill="#113154"/>
<path d="M94.1688 25.0354L95.9704 20.9184C97.5311 21.8498 99.6154 22.4477 101.438 22.4477C103.025 22.4477 103.59 22.1144 103.59 21.5375C103.59 19.4314 94.4254 21.1301 94.4254 14.8858C94.4254 11.7742 97.0073 9.23944 102.145 9.23944C104.371 9.23944 106.67 9.7157 108.398 10.7L106.717 14.7905C105.083 13.9544 103.543 13.547 102.098 13.547C100.464 13.547 99.9454 14.0232 99.9454 14.6C99.9454 16.6109 109.11 14.9334 109.11 21.1089C109.11 24.1729 106.528 26.7552 101.391 26.7552C98.6204 26.7552 95.8238 26.062 94.1688 25.0354Z" fill="#113154"/>
<path d="M110.624 18.8387V9.62573H116.212V18.6694C116.212 21.2306 117.181 22.1884 118.747 22.1884C120.307 22.1884 121.281 21.2306 121.281 18.6694V9.62573H126.775V18.8387C126.775 23.8659 123.79 26.7605 118.699 26.7605C113.609 26.7605 110.624 23.8606 110.624 18.8387Z" fill="#113154"/>
<path d="M128.283 25.0354L130.085 20.9184C131.646 21.8498 133.73 22.4477 135.553 22.4477C137.139 22.4477 137.705 22.1144 137.705 21.5375C137.705 19.4314 128.54 21.1301 128.54 14.8858C128.54 11.7742 131.122 9.23944 136.26 9.23944C138.485 9.23944 140.784 9.7157 142.513 10.7L140.832 14.7905C139.198 13.9544 137.658 13.547 136.212 13.547C134.578 13.547 134.06 14.0232 134.06 14.6C134.06 16.6109 143.225 14.9334 143.225 21.1089C143.225 24.1729 140.643 26.7552 135.505 26.7552C132.735 26.7552 129.944 26.062 128.283 25.0354Z" fill="#113154"/>
<path d="M7.87143 10.4195C7.01254 11.6313 6.3998 12.9807 6.04891 14.436C5.69803 15.8912 5.62994 17.3729 5.8499 18.8493C6.0751 20.3734 6.59357 21.8233 7.39485 23.1515C8.19613 24.4798 9.22785 25.6069 10.469 26.5118C11.6683 27.3797 13.0038 27.9988 14.444 28.3534C15.8842 28.7079 17.3506 28.7767 18.8118 28.5545C20.3201 28.3269 21.7551 27.803 23.0696 26.9934C24.3841 26.1837 25.4996 25.1413 26.3951 23.8871C27.254 22.6753 27.8668 21.3259 28.2177 19.8706C28.4062 19.0927 28.5109 18.3096 28.5371 17.5211C28.1129 19.2145 27.2278 20.712 25.9814 21.8656C25.6567 22.1673 25.3687 22.5059 25.1173 22.8658C24.3841 23.9083 23.4414 24.829 22.305 25.5434C17.7329 28.4116 11.616 26.9457 8.80364 22.3101C5.98607 17.6534 7.44723 11.552 12.0559 8.71556C13.2185 8.00117 14.4754 7.55666 15.7481 7.37145C16.2142 7.30265 16.675 7.18623 17.1202 7.02219C18.6861 6.45597 20.3882 6.35013 22.0431 6.74172C21.3413 6.40305 20.5976 6.13846 19.833 5.95325C18.3928 5.5987 16.9264 5.52991 15.4653 5.75216C13.957 5.97971 12.522 6.50359 11.2075 7.31324C9.89296 8.12288 8.76174 9.16536 7.87143 10.4195Z" fill="#29C3F1"/>
<path d="M12.2758 13.4517C11.7836 15.4996 12.0925 17.6163 13.1452 19.4314C13.1452 19.4367 13.1504 19.442 13.1504 19.442C13.1714 19.4791 13.1923 19.5161 13.2133 19.5531C13.2342 19.5902 13.2604 19.6272 13.2814 19.6643C13.2814 19.6696 13.2866 19.6748 13.2866 19.6748C14.4021 21.4529 16.1199 22.7017 18.1519 23.1992C20.2258 23.7072 22.373 23.3685 24.1955 22.2467C25.0649 21.7122 25.8086 21.0295 26.4108 20.2305C27.0655 19.3573 27.5421 18.3519 27.8039 17.2565C28.3014 15.1927 27.982 13.0601 26.9136 11.2397C26.8979 11.208 26.8769 11.1815 26.8612 11.1498C26.8455 11.118 26.8246 11.0916 26.8089 11.0651C25.6934 9.2712 23.9651 8.00646 21.9226 7.50904C20.8385 7.24445 19.7335 7.2074 18.6704 7.39791C17.6963 7.56725 16.7536 7.92709 15.8842 8.46156C14.0617 9.58342 12.7786 11.3562 12.2758 13.4517ZM25.4786 12.0071C25.4943 12.0282 25.5048 12.0547 25.5205 12.0758C27.2907 15.0922 26.327 19.0134 23.3576 20.8443C22.2316 21.5376 20.9695 21.8339 19.7387 21.7757C17.7172 21.6751 15.7795 20.6062 14.6325 18.7435C14.6221 18.7276 14.6168 18.717 14.6064 18.7012C14.5959 18.6853 14.5906 18.6694 14.5802 18.6588C13.4647 16.7802 13.4175 14.5471 14.2555 12.6844C14.7635 11.552 15.6014 10.5571 16.7326 9.86388C19.7073 8.03292 23.5933 8.96428 25.4367 11.9383C25.4472 11.9594 25.4629 11.9806 25.4786 12.0071Z" fill="#113154"/>
<path d="M14.863 13.1924C14.6169 13.7904 14.4755 14.4307 14.444 15.0816C14.7478 14.4624 15.2191 13.9174 15.8476 13.5311C17.602 12.4515 19.9011 13.0125 20.9695 14.7852C22.0379 16.558 21.4827 18.8758 19.7283 19.9606C19.0998 20.3469 18.4033 20.5215 17.7225 20.5109C18.309 20.7808 18.9375 20.9449 19.5764 21.0031C20.6814 21.0983 21.7446 20.5638 22.3311 19.6113C23.3629 17.9338 23.4466 15.7377 22.3626 13.9332C21.2785 12.1287 19.3093 11.2027 17.3559 11.3614C16.2456 11.4461 15.2872 12.1552 14.863 13.1924Z" fill="#29C3F1"/>
<path d="M33.35 14.7111C33.0253 12.5151 32.2817 10.4354 31.1295 8.52505C29.9773 6.61472 28.49 4.99014 26.7041 3.69365C24.9811 2.44479 23.0591 1.55048 20.9904 1.04247C18.9218 0.534459 16.8112 0.439207 14.7111 0.751422C12.5377 1.07951 10.4795 1.83095 8.58891 2.99514C6.69831 4.15933 5.09051 5.6622 3.80741 7.46669C2.57145 9.20769 1.68638 11.1498 1.18361 13.24C0.691323 15.3303 0.591818 17.4629 0.906046 19.5849C1.23075 21.781 1.97442 23.8606 3.12659 25.771C3.61888 26.5912 4.17925 27.3532 4.79199 28.0623L1.5764 31.6925C0.759406 32.6133 0.837963 34.0314 1.74922 34.857C2.17343 35.238 2.70238 35.4285 3.22609 35.4285C3.8336 35.4285 4.44111 35.1745 4.88102 34.6823L8.13328 31.0098C9.70442 32.047 11.4222 32.8038 13.2604 33.2536C15.3291 33.7616 17.4397 33.8568 19.5397 33.5446C21.7131 33.2165 23.7713 32.4651 25.6619 31.3009C27.5525 30.1367 29.1603 28.6338 30.4434 26.8293C31.6794 25.0883 32.5645 23.1462 33.0672 21.056C33.5648 18.9657 33.659 16.8332 33.35 14.7111ZM23.8342 28.2687C18.9375 31.285 12.8415 30.6077 8.71984 27.0198C8.7146 27.0145 8.70936 27.0093 8.70413 27.004C8.67794 26.9828 8.65175 26.9616 8.62557 26.9405C7.66717 26.0885 6.81876 25.083 6.12222 23.9241C2.41957 17.7804 4.3416 9.76862 10.4219 6.02733C16.5022 2.28604 24.4312 4.22812 28.1339 10.3719C31.8365 16.5104 29.9145 24.5274 23.8342 28.2687Z" fill="#113154"/>
</g>
<defs>
<clipPath id="clip0_2027_2133">
<rect width="144" height="36" fill="white"/>
</clipPath>
</defs>
</svg>
